<svg width="17" height="17" viewBox="0 0 17 17" fill="none" xmlns="http://www.w3.org/2000/svg">
<g clip-path="url(#clip0_31_96)">
<path d="M2.49046 14.5095C1.67862 13.7254 1.03107 12.7874 0.585596 11.7504C0.140119 10.7134 -0.0943638 9.59799 -0.104171 8.46937C-0.113979 7.34074 0.101086 6.22147 0.528473 5.17685C0.955861 4.13223 1.58701 3.18319 2.3851 2.3851C3.18319 1.58701 4.13223 0.955861 5.17685 0.528473C6.22147 0.101086 7.34074 -0.113979 8.46937 -0.104171C9.59799 -0.0943638 10.7134 0.140119 11.7504 0.585596C12.7874 1.03107 13.7254 1.67862 14.5095 2.49046C16.0578 4.09358 16.9146 6.2407 16.8952 8.46937C16.8758 10.698 15.9819 12.8299 14.4059 14.4059C12.8299 15.9819 10.698 16.8758 8.46937 16.8952C6.2407 16.9146 4.09358 16.0578 2.49046 14.5095ZM3.68896 13.311C4.96491 14.5869 6.69548 15.3037 8.49996 15.3037C10.3044 15.3037 12.035 14.5869 13.311 13.311C14.5869 12.035 15.3037 10.3044 15.3037 8.49996C15.3037 6.69548 14.5869 4.96491 13.311 3.68896C12.035 2.413 10.3044 1.69618 8.49996 1.69618C6.69548 1.69618 4.96491 2.413 3.68896 3.68896C2.413 4.96491 1.69618 6.69548 1.69618 8.49996C1.69618 10.3044 2.413 12.035 3.68896 13.311ZM12.104 6.09446L9.69846 8.49996L12.104 10.9055L10.9055 12.104L8.49996 9.69846L6.09446 12.104L4.89596 10.9055L7.30146 8.49996L4.89596 6.09446L6.09446 4.89596L8.49996 7.30146L10.9055 4.89596L12.104 6.09446Z" fill="#CABFBF"/>
</g>
<defs>
<clipPath id="clip0_31_96">
<rect width="17" height="17" fill="white"/>
</clipPath>
</defs>
</svg>
